<svg width="24" height="24" viewBox="0 0 24 24" fill="none" xmlns="http://www.w3.org/2000/svg">
<path d="M7.91988 1.25H4.53988V2.75H7.91988V1.25ZM11.2099 4.561C11.2099 2.74366 9.75192 1.25 7.91988 1.25V2.75C8.90783 2.75 9.70988 3.55634 9.70988 4.561H11.2099ZM11.2099 7.97V4.561H9.70988V7.97H11.2099ZM7.91988 11.28C9.74984 11.28 11.2099 9.79845 11.2099 7.97H9.70988C9.70988 8.98155 8.90992 9.78 7.91988 9.78V11.28ZM4.53988 11.28H7.91988V9.78H4.53988V11.28ZM1.24988 7.97C1.24988 9.80038 2.72184 11.28 4.53988 11.28V9.78C3.55792 9.78 2.74988 8.97962 2.74988 7.97H1.24988ZM1.24988 4.561V7.97H2.74988V4.561H1.24988ZM4.53988 1.25C2.71975 1.25 1.24988 2.74173 1.24988 4.561H2.74988C2.74988 3.55827 3.56001 2.75 4.53988 2.75V1.25ZM7.91988 12.7197H4.53988V14.2197H7.91988V12.7197ZM11.2099 16.0307C11.2099 14.2026 9.75022 12.7197 7.91988 12.7197V14.2197C8.90954 14.2197 9.70988 15.0188 9.70988 16.0307H11.2099ZM11.2099 19.4397V16.0307H9.70988V19.4397H11.2099ZM7.91988 22.7497C9.75174 22.7497 11.2099 21.2562 11.2099 19.4397H9.70988C9.70988 20.4432 8.90802 21.2497 7.91988 21.2497V22.7497ZM4.53988 22.7497H7.91988V21.2497H4.53988V22.7497ZM1.24988 19.4397C1.24988 21.2582 2.71994 22.7497 4.53988 22.7497V21.2497C3.55982 21.2497 2.74988 20.4412 2.74988 19.4397H1.24988ZM1.24988 16.0307V19.4397H2.74988V16.0307H1.24988ZM4.53988 12.7197C2.72146 12.7197 1.24988 14.2007 1.24988 16.0307H2.74988C2.74988 15.0207 3.5583 14.2197 4.53988 14.2197V12.7197ZM16.08 2.75H19.46V1.25H16.08V2.75ZM14.29 4.561C14.29 3.55634 15.092 2.75 16.08 2.75V1.25C14.2479 1.25 12.79 2.74366 12.79 4.561H14.29ZM14.29 7.97V4.561H12.79V7.97H14.29ZM16.08 9.78C15.0899 9.78 14.29 8.98155 14.29 7.97H12.79C12.79 9.79845 14.25 11.28 16.08 11.28V9.78ZM19.46 9.78H16.08V11.28H19.46V9.78ZM21.25 7.97C21.25 8.97962 20.4419 9.78 19.46 9.78V11.28C21.278 11.28 22.75 9.80038 22.75 7.97H21.25ZM21.25 4.561V7.97H22.75V4.561H21.25ZM19.46 2.75C20.4398 2.75 21.25 3.55827 21.25 4.561H22.75C22.75 2.74173 21.2801 1.25 19.46 1.25V2.75ZM19.46 12.7197H16.08V14.2197H19.46V12.7197ZM22.75 16.0307C22.75 14.2007 21.2784 12.7197 19.46 12.7197V14.2197C20.4416 14.2197 21.25 15.0207 21.25 16.0307H22.75ZM22.75 19.4397V16.0307H21.25V19.4397H22.75ZM19.46 22.7497C21.2799 22.7497 22.75 21.2582 22.75 19.4397H21.25C21.25 20.4412 20.44 21.2497 19.46 21.2497V22.7497ZM16.08 22.7497H19.46V21.2497H16.08V22.7497ZM12.79 19.4397C12.79 21.2562 14.2481 22.7497 16.08 22.7497V21.2497C15.0918 21.2497 14.29 20.4432 14.29 19.4397H12.79ZM12.79 16.0307V19.4397H14.29V16.0307H12.79ZM16.08 12.7197C14.2496 12.7197 12.79 14.2026 12.79 16.0307H14.29C14.29 15.0188 15.0903 14.2197 16.08 14.2197V12.7197Z" fill="#BDBDBD"/>
</svg>
