<svg width="24" height="24" viewBox="0 0 24 24" fill="none" xmlns="http://www.w3.org/2000/svg">
<path d="M7.91991 1.25H4.53991V2.75H7.91991V1.25ZM11.2099 4.561C11.2099 2.74366 9.75196 1.25 7.91991 1.25V2.75C8.90786 2.75 9.70991 3.55634 9.70991 4.561H11.2099ZM11.2099 7.97V4.561H9.70991V7.97H11.2099ZM7.91991 11.28C9.74987 11.28 11.2099 9.79845 11.2099 7.97H9.70991C9.70991 8.98155 8.90995 9.78 7.91991 9.78V11.28ZM4.53991 11.28H7.91991V9.78H4.53991V11.28ZM1.24991 7.97C1.24991 9.80038 2.72187 11.28 4.53991 11.28V9.78C3.55795 9.78 2.74991 8.97962 2.74991 7.97H1.24991ZM1.24991 4.561V7.97H2.74991V4.561H1.24991ZM4.53991 1.25C2.71978 1.25 1.24991 2.74173 1.24991 4.561H2.74991C2.74991 3.55827 3.56004 2.75 4.53991 2.75V1.25ZM7.91991 12.7197H4.53991V14.2197H7.91991V12.7197ZM11.2099 16.0307C11.2099 14.2026 9.75025 12.7197 7.91991 12.7197V14.2197C8.90957 14.2197 9.70991 15.0188 9.70991 16.0307H11.2099ZM11.2099 19.4397V16.0307H9.70991V19.4397H11.2099ZM7.91991 22.7497C9.75177 22.7497 11.2099 21.2562 11.2099 19.4397H9.70991C9.70991 20.4432 8.90805 21.2497 7.91991 21.2497V22.7497ZM4.53991 22.7497H7.91991V21.2497H4.53991V22.7497ZM1.24991 19.4397C1.24991 21.2582 2.71997 22.7497 4.53991 22.7497V21.2497C3.55985 21.2497 2.74991 20.4412 2.74991 19.4397H1.24991ZM1.24991 16.0307V19.4397H2.74991V16.0307H1.24991ZM4.53991 12.7197C2.72149 12.7197 1.24991 14.2007 1.24991 16.0307H2.74991C2.74991 15.0207 3.55833 14.2197 4.53991 14.2197V12.7197ZM16.08 2.75H19.46V1.25H16.08V2.75ZM14.29 4.561C14.29 3.55634 15.0921 2.75 16.08 2.75V1.25C14.248 1.25 12.79 2.74366 12.79 4.561H14.29ZM14.29 7.97V4.561H12.79V7.97H14.29ZM16.08 9.78C15.09 9.78 14.29 8.98155 14.29 7.97H12.79C12.79 9.79845 14.2501 11.28 16.08 11.28V9.78ZM19.46 9.78H16.08V11.28H19.46V9.78ZM21.25 7.97C21.25 8.97962 20.442 9.78 19.46 9.78V11.28C21.278 11.28 22.75 9.80038 22.75 7.97H21.25ZM21.25 4.561V7.97H22.75V4.561H21.25ZM19.46 2.75C20.4399 2.75 21.25 3.55827 21.25 4.561H22.75C22.75 2.74173 21.2801 1.25 19.46 1.25V2.75ZM19.46 12.7197H16.08V14.2197H19.46V12.7197ZM22.75 16.0307C22.75 14.2007 21.2784 12.7197 19.46 12.7197V14.2197C20.4416 14.2197 21.25 15.0207 21.25 16.0307H22.75ZM22.75 19.4397V16.0307H21.25V19.4397H22.75ZM19.46 22.7497C21.28 22.7497 22.75 21.2582 22.75 19.4397H21.25C21.25 20.4412 20.4401 21.2497 19.46 21.2497V22.7497ZM16.08 22.7497H19.46V21.2497H16.08V22.7497ZM12.79 19.4397C12.79 21.2562 14.2482 22.7497 16.08 22.7497V21.2497C15.0919 21.2497 14.29 20.4432 14.29 19.4397H12.79ZM12.79 16.0307V19.4397H14.29V16.0307H12.79ZM16.08 12.7197C14.2497 12.7197 12.79 14.2026 12.79 16.0307H14.29C14.29 15.0188 15.0903 14.2197 16.08 14.2197V12.7197Z" fill="#BDBDBD"/>
</svg>
