<svg width="20" height="20" viewBox="0 0 20 20" fill="none" xmlns="http://www.w3.org/2000/svg">
<g clip-path="url(#clip0_0_8)">
<path d="M9.99997 19.0909C15.0207 19.0909 19.0909 15.0208 19.0909 10C19.0909 4.97926 15.0207 0.909119 9.99997 0.909119C4.9792 0.909119 0.909058 4.97926 0.909058 10C0.909058 15.0208 4.9792 19.0909 9.99997 19.0909Z" stroke="#8F90A7" stroke-width="2" stroke-linecap="round" stroke-linejoin="round"/>
<path d="M0.909058 10H19.0909" stroke="#8F90A7" stroke-width="2" stroke-linecap="round" stroke-linejoin="round"/>
<path d="M10 0.909119C12.2739 3.39853 13.5661 6.62915 13.6364 10C13.5661 13.3709 12.2739 16.6015 10 19.0909C7.72612 16.6015 6.43387 13.3709 6.36365 10C6.43387 6.62915 7.72612 3.39853 10 0.909119V0.909119Z" stroke="#8F90A7" stroke-width="2" stroke-linecap="round" stroke-linejoin="round"/>
</g>
<defs>
<clipPath id="clip0_0_8">
<rect width="20" height="20" fill="white"/>
</clipPath>
</defs>
</svg>
